<svg id="Layer_1" data-name="Layer 1" xmlns="http://www.w3.org/2000/svg" viewBox="0 0 383.18 512">
  <defs>
    <style>
      .cls-1 {
        fill: #bdbdbd;
      }

      .cls-2 {
        fill: #5c5c5c;
      }

      .cls-3 {
        fill: #f94530;
      }

      .cls-4 {
        fill: #ebebeb;
      }

      .cls-5 {
        fill: #a6a6a6;
      }

      .cls-6 {
        fill: #58caee;
      }

      .cls-7 {
        fill: #4cafcf;
      }

      .cls-8 {
        fill: #d93c2a;
      }

      .cls-9 {
        fill: #ffb30f;
      }
    </style>
  </defs>
  <g>
    <path class="cls-1" d="M375.68,136.11a29.78,29.78,0,0,1-59.55,0,29.77,29.77,0,1,1-59.54,0,29.78,29.78,0,0,1-59.55,0,29.78,29.78,0,0,1-59.55,0,29.75,29.75,0,0,1-16,26.41V489.58A22.42,22.42,0,0,0,143.87,512H369.3a22.42,22.42,0,0,0,22.42-22.42V162.52A29.75,29.75,0,0,1,375.68,136.11Z" transform="translate(-65)"/>
    <path class="cls-2" d="M256.59,453.52a18.07,18.07,0,1,0,18.06,18.07A18.08,18.08,0,0,0,256.59,453.52Z" transform="translate(-65)"/>
    <path class="cls-3" d="M109.49,165.88H106a28,28,0,0,1-28-28V79.75h59.54v58.13A28,28,0,0,1,109.49,165.88Z" transform="translate(-65)"/>
    <path class="cls-4" d="M169,165.88h-3.55a28,28,0,0,1-28-28V79.75H197v58.13A28,28,0,0,1,169,165.88Z" transform="translate(-65)"/>
    <path class="cls-3" d="M228.59,165.88H225a28,28,0,0,1-28-28V79.75h59.55v58.13A28,28,0,0,1,228.59,165.88Z" transform="translate(-65)"/>
    <path class="cls-4" d="M288.13,165.88h-3.54a28,28,0,0,1-28-28V79.75h59.54v58.13A28,28,0,0,1,288.13,165.88Z" transform="translate(-65)"/>
    <path class="cls-3" d="M347.68,165.88h-3.54a28,28,0,0,1-28-28V79.75h59.54v58.13A28,28,0,0,1,347.68,165.88Z" transform="translate(-65)"/>
    <path class="cls-4" d="M407.23,165.88h-3.55a28,28,0,0,1-28-28V79.75h59.55v58.13A28,28,0,0,1,407.23,165.88Z" transform="translate(-65)"/>
    <path class="cls-5" d="M375.68,136.11a29.78,29.78,0,0,1-59.55,0,29.77,29.77,0,1,1-59.54,0,29.78,29.78,0,0,1-59.55,0,29.78,29.78,0,0,1-59.55,0,29.75,29.75,0,0,1-16,26.41v34.55a28.85,28.85,0,0,0,16-25.86,28.85,28.85,0,0,0,28.85,28.85h1.85A28.85,28.85,0,0,0,197,171.21a28.85,28.85,0,0,0,28.84,28.85h1.86a28.85,28.85,0,0,0,28.85-28.85,28.85,28.85,0,0,0,28.84,28.85h1.86a28.85,28.85,0,0,0,28.84-28.85A28.85,28.85,0,0,0,345,200.06h1.85a28.85,28.85,0,0,0,28.85-28.85,28.86,28.86,0,0,0,16,25.86V162.52A29.76,29.76,0,0,1,375.68,136.11Z" transform="translate(-65)"/>
    <path class="cls-6" d="M345.91,165.88a29.77,29.77,0,0,1-29.78-29.77,29.77,29.77,0,1,1-59.54,0,29.78,29.78,0,0,1-59.55,0,29.8,29.8,0,0,1-38.37,28.51V425.76a6,6,0,0,0,6,6H348.55a6,6,0,0,0,5.95-6V164.62A29.7,29.7,0,0,1,345.91,165.88Z" transform="translate(-65)"/>
    <path class="cls-7" d="M316.13,136.11a29.77,29.77,0,1,1-59.54,0,29.78,29.78,0,0,1-59.55,0,29.8,29.8,0,0,1-38.37,28.51V199a28.92,28.92,0,0,0,7.67,1h1.85A28.85,28.85,0,0,0,197,171.21a28.85,28.85,0,0,0,28.84,28.85h1.86a28.85,28.85,0,0,0,28.85-28.85,28.85,28.85,0,0,0,28.84,28.85h1.86a28.85,28.85,0,0,0,28.84-28.85A28.85,28.85,0,0,0,345,200.06h1.85a28.92,28.92,0,0,0,7.67-1V164.62a29.8,29.8,0,0,1-38.37-28.51Z" transform="translate(-65)"/>
    <path class="cls-3" d="M401.25,11.66A21.06,21.06,0,0,0,382.4,0H130.77a21.09,21.09,0,0,0-18.85,11.66L78,79.75H435.23Z" transform="translate(-65)"/>
    <path class="cls-8" d="M111.92,38.43a21.09,21.09,0,0,1,18.85-11.66H382.4a21.06,21.06,0,0,1,18.85,11.66l20.62,41.32h13.36l-34-68.09A21.06,21.06,0,0,0,382.4,0H130.77a21.09,21.09,0,0,0-18.85,11.66L78,79.75H91.3Z" transform="translate(-65)"/>
    <path class="cls-9" d="M440.21,87.71H73a8,8,0,1,1,0-15.92H440.21a8,8,0,1,1,0,15.92Z" transform="translate(-65)"/>
  </g>
</svg>
