<?xml version="1.0" encoding="UTF-8"?>
<svg version="1.1" viewBox="31 -942.5 455 457.75" xmlns="http://www.w3.org/2000/svg" xmlns:xlink="http://www.w3.org/1999/xlink">
    <!--Generated by IJSVG (https://github.com/iconjar/IJSVG)-->
    <path d="M393,-654.75c1,2 3,3 6,4l65,21c1,1 3,1 4,1c5,0 8,-2 11,-5c4,-4 6,-10 4,-15l-18,-55c-2,-6 -4,-12 -7,-16v-1c-1,0 -1,0 -1,-1l-217,-217c-6,-5 -16,-5 -22,0l-43,44c-7,6 -7,16 0,21Zm51,-13l-32,-11l-168,-168l22,-22l168,168c2,6 6,20 10,33Zm-215,-238l22,23l-22,22l-22,-23Zm253,395l-425,-425c-4,-5 -11,-6 -17,-3c-6,2 -9,7 -9,14v425c0,8 6,15 15,15h425c6,0 12,-4 14,-10c2,-5 1,-12 -3,-16Zm-421,-5v-35h41c6,0 10,-5 10,-10c0,-6 -4,-11 -10,-11h-41v-40h20c6,0 11,-4 11,-10c0,-5 -5,-10 -11,-10h-20v-41h41c6,0 10,-4 10,-10c0,-5 -4,-10 -10,-10h-41v-40h20c6,0 11,-5 11,-11c0,-5 -5,-10 -11,-10h-20v-40h31c5,0 10,-5 10,-11c0,-5 -5,-10 -10,-10h-31v-73l373,373h-373Zm79,-67h136c5,0 8,-3 10,-7c1,-3 0,-8 -2,-11l-137,-137c-3,-3 -7,-3 -11,-2c-4,2 -6,6 -6,10v136c0,6 4,11 10,11Zm10,-123l102,102h-102Z" fill="#000"></path>
</svg>