<?xml version="1.0" encoding="UTF-8"?><svg version="1.1" viewBox="0 0 32 32" xmlns="http://www.w3.org/2000/svg" xmlns:xlink="http://www.w3.org/1999/xlink"><path d="M31.526 7.24c.01.042.016.089.016.13v6.87c0 .177-.094.344-.25.432l-5.766 3.323v6.578c0 .177-.094.344-.25.432l-12.036 6.927c-.026.016-.057.026-.089.036 -.01.005-.021.01-.031.016 -.083.021-.172.021-.255 0 -.016-.005-.026-.01-.036-.016 -.031-.01-.057-.021-.083-.036l-12.031-6.927c-.156-.089-.255-.255-.255-.432v-20.609c0-.042.01-.089.021-.13 .005-.016.01-.026.016-.042 .01-.026.021-.052.031-.078 .005-.016.021-.026.031-.042 .016-.021.031-.042.047-.063 .016-.01.031-.021.047-.036 .021-.016.036-.031.057-.042l6.016-3.464c.156-.089.349-.089.5 0l6.021 3.464c.021.01.036.026.052.042 .016.01.036.026.052.036 .016.021.026.036.042.063 .01.01.026.026.036.042 .01.026.021.052.031.078 .005.016.016.026.016.042 .016.042.021.083.021.13v12.87l5.01-2.885v-6.578c0-.047.01-.089.021-.13 .005-.016.01-.031.016-.042 .01-.026.021-.052.031-.078 .01-.021.026-.031.036-.047 .016-.021.026-.042.042-.057 .016-.015.036-.026.052-.036 .016-.016.031-.031.052-.042l6.021-3.464c.151-.094.344-.094.5 0l6.016 3.464c.021.01.036.026.057.042 .016.01.031.021.047.036 .016.015.031.036.047.057 .01.016.026.026.031.047 .016.026.021.052.031.078 .01.01.016.026.021.042Zm-.99 6.708v-5.708l-2.104 1.208 -2.906 1.677v5.708Zm-6.01 10.333v-5.714l-2.865 1.63 -8.167 4.667v5.766Zm-23.068-19.448v19.448l11.031 6.349v-5.766l-5.766-3.266c-.021-.01-.036-.026-.052-.042 -.016-.01-.036-.021-.047-.036h-.005c-.016-.016-.026-.036-.042-.052 -.01-.016-.026-.031-.036-.052 -.01-.016-.021-.042-.026-.063 -.01-.021-.021-.036-.026-.057 -.005-.021-.01-.047-.01-.073 -.005-.021-.01-.036-.01-.057v-13.448l-2.906-1.677Zm5.516-3.755l-5.01 2.885 5.01 2.885 5.01-2.885Zm2.609 18.011l2.906-1.677v-12.578l-2.104 1.208 -2.911 1.677v12.578Zm15.443-14.605l-5.016 2.885 5.016 2.885 5.01-2.885Zm-.5 6.641l-5.016-2.885v5.708l2.906 1.677 2.109 1.208Zm-11.536 12.87l11.026-6.292 -5.005-2.885 -11.021 6.344Z" fill="#000"></path></svg>